# xmcd
#
# Track frame offsets:
#	150
#	13305
#	27202
#	42867
#	54117
#	67227
#	79705
#	95520
#	110752
#	124952
#	140127
#	150817
#
# Disc length: 2254 seconds
#
# Revision: 5
# Processed by: cddbd v1.5.2PL0 Copyright (c) Steve Scherf et al.
# Submitted via: audiograbber 1.83.01
#
DISCID=9f08cc0c
DTITLE=Sammy Kershaw - The Hits Chapter 1
DYEAR=1995
DGENRE=Country
TTITLE0=Cadillac Style
TTITLE1=Don't Go Near The Water
TTITLE2=Yard Sale
TTITLE3=Anywhere But Here
TTITLE4=She Don't Know She's Beautiful
TTITLE5=Haunted Heart
TTITLE6=Queen Of My Double Wide Trailer
TTITLE7=I Can't Reach Her Anymore
TTITLE8=National Working Woman's Holiday
TTITLE9=Third Rate Romance
TTITLE10=Your Tattoo
TTITLE11=Still Lovin' You
EXTD=
EXTT0=
EXTT1=
EXTT2=
EXTT3=
EXTT4=
EXTT5=
EXTT6=
EXTT7=
EXTT8=
EXTT9=
EXTT10=
EXTT11=
PLAYORDER=
